<svg width="29" height="21" viewBox="0 0 29 21" fill="none" xmlns="http://www.w3.org/2000/svg">
<path d="M15.25 11C15.25 11.3315 15.1183 11.6495 14.8839 11.8839C14.6495 12.1183 14.3315 12.25 14 12.25C13.6685 12.25 13.3505 12.1183 13.1161 11.8839C12.8817 11.6495 12.75 11.3315 12.75 11C12.75 10.6685 12.8817 10.3505 13.1161 10.1161C13.3505 9.8817 13.6685 9.75 14 9.75C14.3315 9.75 14.6495 9.8817 14.8839 10.1161C15.1183 10.3505 15.25 10.6685 15.25 11V11ZM20.25 11C20.25 11.3315 20.1183 11.6495 19.8839 11.8839C19.6495 12.1183 19.3315 12.25 19 12.25C18.6685 12.25 18.3505 12.1183 18.1161 11.8839C17.8817 11.6495 17.75 11.3315 17.75 11C17.75 10.6685 17.8817 10.3505 18.1161 10.1161C18.3505 9.8817 18.6685 9.75 19 9.75C19.3315 9.75 19.6495 9.8817 19.8839 10.1161C20.1183 10.3505 20.25 10.6685 20.25 11ZM24 12.25C24.3315 12.25 24.6495 12.1183 24.8839 11.8839C25.1183 11.6495 25.25 11.3315 25.25 11C25.25 10.6685 25.1183 10.3505 24.8839 10.1161C24.6495 9.8817 24.3315 9.75 24 9.75C23.6685 9.75 23.3505 9.8817 23.1161 10.1161C22.8817 10.3505 22.75 10.6685 22.75 11C22.75 11.3315 22.8817 11.6495 23.1161 11.8839C23.3505 12.1183 23.6685 12.25 24 12.25V12.25Z" fill="#C4C4C4"/>
<path d="M11.7062 20.7538L11.7312 20.7487C14.0187 20.295 15.4162 19.6963 16.0662 19.3675C17.0232 19.6227 18.0096 19.7513 19 19.75C24.5225 19.75 29 15.8325 29 11C29 6.1675 24.5225 2.25 19 2.25C13.4775 2.25 9 6.1675 9 11C9 13.2 9.92875 15.2125 11.4625 16.75C11.3552 17.7376 11.1354 18.7098 10.8075 19.6475L10.8037 19.6612C10.7106 19.9298 10.6088 20.1954 10.4988 20.4575C10.4 20.69 10.5913 20.95 10.84 20.91C11.1296 20.8626 11.4184 20.8105 11.7062 20.7538V20.7538ZM12.7062 16.8687C12.7238 16.6857 12.7007 16.5011 12.6387 16.3281C12.5767 16.155 12.4772 15.9977 12.3475 15.8675C11.0225 14.5375 10.25 12.835 10.25 11C10.25 7.01 14.005 3.5 19 3.5C23.995 3.5 27.75 7.01 27.75 11C27.75 14.9913 23.995 18.5 19 18.5C18.1189 18.5013 17.2414 18.387 16.39 18.16C16.0925 18.0803 15.776 18.1132 15.5013 18.2525C15.0175 18.4975 13.9512 18.965 12.2087 19.3687C12.4518 18.5527 12.6184 17.7157 12.7062 16.8687V16.8687Z" fill="#C4C4C4"/>
<path fill-rule="evenodd" clip-rule="evenodd" d="M23.2202 4.47323C22.9266 4.76684 22.9266 5.24287 23.2202 5.53648C23.5138 5.83009 23.9899 5.83009 24.2835 5.53648L25.8783 3.94166L27.4733 5.53668C27.7669 5.83029 28.2429 5.83029 28.5366 5.53668C28.8302 5.24307 28.8302 4.76704 28.5366 4.47343L26.9415 2.87841L28.5365 1.28346C28.8301 0.989852 28.8301 0.513817 28.5365 0.220207C28.2429 -0.0734027 27.7668 -0.0734022 27.4732 0.220208L25.8783 1.81515L24.2835 0.220408C23.9899 -0.0732018 23.5139 -0.0732019 23.2203 0.220408C22.9267 0.514018 22.9267 0.990053 23.2203 1.28366L24.815 2.87841L23.2202 4.47323Z" fill="white"/>
</svg>
