<svg width="28" height="20" viewBox="0 0 28 20" fill="none" xmlns="http://www.w3.org/2000/svg">
<path d="M13.25 10C13.25 10.3315 13.1183 10.6495 12.8839 10.8839C12.6495 11.1183 12.3315 11.25 12 11.25C11.6685 11.25 11.3505 11.1183 11.1161 10.8839C10.8817 10.6495 10.75 10.3315 10.75 10C10.75 9.66848 10.8817 9.35054 11.1161 9.11612C11.3505 8.8817 11.6685 8.75 12 8.75C12.3315 8.75 12.6495 8.8817 12.8839 9.11612C13.1183 9.35054 13.25 9.66848 13.25 10V10ZM18.25 10C18.25 10.3315 18.1183 10.6495 17.8839 10.8839C17.6495 11.1183 17.3315 11.25 17 11.25C16.6685 11.25 16.3505 11.1183 16.1161 10.8839C15.8817 10.6495 15.75 10.3315 15.75 10C15.75 9.66848 15.8817 9.35054 16.1161 9.11612C16.3505 8.8817 16.6685 8.75 17 8.75C17.3315 8.75 17.6495 8.8817 17.8839 9.11612C18.1183 9.35054 18.25 9.66848 18.25 10ZM22 11.25C22.3315 11.25 22.6495 11.1183 22.8839 10.8839C23.1183 10.6495 23.25 10.3315 23.25 10C23.25 9.66848 23.1183 9.35054 22.8839 9.11612C22.6495 8.8817 22.3315 8.75 22 8.75C21.6685 8.75 21.3505 8.8817 21.1161 9.11612C20.8817 9.35054 20.75 9.66848 20.75 10C20.75 10.3315 20.8817 10.6495 21.1161 10.8839C21.3505 11.1183 21.6685 11.25 22 11.25V11.25Z" fill="white"/>
<path d="M9.70625 19.7538L9.73125 19.7487C12.0187 19.295 13.4162 18.6963 14.0662 18.3675C15.0232 18.6227 16.0096 18.7513 17 18.75C22.5225 18.75 27 14.8325 27 10C27 5.1675 22.5225 1.25 17 1.25C11.4775 1.25 7 5.1675 7 10C7 12.2 7.92875 14.2125 9.4625 15.75C9.3552 16.7376 9.13544 17.7098 8.8075 18.6475L8.80375 18.6612C8.71055 18.9298 8.60884 19.1954 8.49875 19.4575C8.4 19.69 8.59125 19.95 8.84 19.91C9.12958 19.8626 9.41837 19.8105 9.70625 19.7538V19.7538ZM10.7062 15.8687C10.7238 15.6857 10.7007 15.5011 10.6387 15.3281C10.5767 15.155 10.4772 14.9977 10.3475 14.8675C9.0225 13.5375 8.25 11.835 8.25 10C8.25 6.01 12.005 2.5 17 2.5C21.995 2.5 25.75 6.01 25.75 10C25.75 13.9913 21.995 17.5 17 17.5C16.1189 17.5013 15.2414 17.387 14.39 17.16C14.0925 17.0803 13.776 17.1132 13.5013 17.2525C13.0175 17.4975 11.9512 17.965 10.2087 18.3687C10.4518 17.5527 10.6184 16.7157 10.7062 15.8687V15.8687Z" fill="white"/>
</svg>
