<svg width="42" height="42" viewBox="0 0 42 42" fill="none" xmlns="http://www.w3.org/2000/svg">
<g clip-path="url(#clip0_2_45)">
<path d="M20.9658 0C9.93952 0 0.895087 8.50369 0.0406494 19.3121L11.2927 23.9676C12.2799 23.2943 13.4473 22.9347 14.6422 22.9359C14.7511 22.9359 14.8614 22.9425 14.9703 22.9425L19.9749 15.6962V15.5938C19.9749 11.2258 23.5226 7.67812 27.8906 7.67812C32.2586 7.67812 35.8128 11.2324 35.8128 15.6004C35.8101 17.7 34.9743 19.7128 33.489 21.1969C32.0037 22.6809 29.9902 23.515 27.8906 23.5161H27.7134L20.576 28.6086C20.576 28.7044 20.5826 28.7936 20.5826 28.8894C20.5826 32.1707 17.93 34.8298 14.6488 34.8298C11.7915 34.8298 9.37121 32.7784 8.81734 30.0589L0.765149 26.7225C3.26021 35.5412 11.3478 42.0013 20.9658 42.0013C32.5591 42.0013 41.9593 32.6025 41.9593 21.0013C41.9593 9.40012 32.5605 0.0013125 20.9658 0.0013125V0ZM13.1932 31.8688L10.6155 30.8018C11.0902 31.788 11.9096 32.5663 12.9189 32.9897C14.0114 33.442 15.2387 33.4427 16.3317 32.9918C17.4248 32.5408 18.2945 31.6749 18.7503 30.5839C18.9765 30.0438 19.0935 29.4644 19.0946 28.8789C19.0957 28.2935 18.9809 27.7136 18.7569 27.1727C18.5359 26.6289 18.2085 26.1348 17.7941 25.7192C17.3796 25.3036 16.8863 24.9749 16.3432 24.7524C15.2967 24.3153 14.1225 24.2956 13.062 24.6973L15.7211 25.7985C17.3958 26.502 18.1886 28.4235 17.4916 30.0982C16.7947 31.773 14.8666 32.5658 13.1919 31.8688H13.1932ZM33.1681 15.5859C33.1668 14.1878 32.6112 12.8472 31.6232 11.858C30.6352 10.8687 29.2953 10.3115 27.8971 10.3084C26.4974 10.3084 25.1551 10.8644 24.1653 11.8541C23.1756 12.8439 22.6196 14.1862 22.6196 15.5859C22.6196 16.9856 23.1756 18.328 24.1653 19.3177C25.1551 20.3075 26.4974 20.8635 27.8971 20.8635C29.2956 20.8614 30.6361 20.3045 31.6243 19.315C32.6126 18.3256 33.1678 16.9844 33.1681 15.5859ZM23.9465 15.5794C23.9465 13.3849 25.7171 11.6143 27.905 11.6143C30.093 11.6143 31.8766 13.3849 31.8766 15.5794C31.8766 17.7673 30.093 19.5444 27.905 19.5444C25.7171 19.5444 23.9465 17.7673 23.9465 15.5794Z" fill="white"/>
</g>
<defs>
<clipPath id="clip0_2_45">
<rect width="42" height="42" fill="white"/>
</clipPath>
</defs>
</svg>
