<svg width="42" height="42" viewBox="0 0 42 42" fill="none" xmlns="http://www.w3.org/2000/svg">
<path d="M21 0.839996C9.86583 0.839996 0.840027 9.8658 0.840027 21C0.840027 32.1342 9.86583 41.16 21 41.16C32.1342 41.16 41.16 32.1342 41.16 21C41.16 9.8658 32.1342 0.839996 21 0.839996ZM28.7532 23.5851C28.7532 23.5851 30.5361 25.3449 30.975 26.1618C30.9876 26.1786 30.9939 26.1954 30.9981 26.2038C31.1766 26.5041 31.2186 26.7372 31.1304 26.9115C30.9834 27.2013 30.4794 27.3441 30.3072 27.3567H27.1572C26.9388 27.3567 26.481 27.3 25.9266 26.9178C25.5003 26.6196 25.0803 26.1303 24.6708 25.6536C24.0597 24.9438 23.5305 24.3306 22.9971 24.3306C22.9294 24.3305 22.862 24.3411 22.7976 24.3621C22.3944 24.4923 21.8778 25.0677 21.8778 26.6007C21.8778 27.0795 21.4998 27.3546 21.2331 27.3546H19.7904C19.299 27.3546 16.7391 27.1824 14.4711 24.7905C11.6949 21.861 9.19593 15.9852 9.17493 15.9306C9.01743 15.5505 9.34293 15.3468 9.69783 15.3468H12.8793C13.3035 15.3468 13.4421 15.6051 13.5387 15.834C13.6521 16.1007 14.0679 17.1612 14.7504 18.354C15.8571 20.2986 16.5354 21.0882 17.0793 21.0882C17.1813 21.087 17.2815 21.0611 17.3712 21.0126C18.081 20.6178 17.9487 18.0873 17.9172 17.5623C17.9172 17.4636 17.9151 16.4304 17.5518 15.9348C17.2914 15.5757 16.8483 15.4392 16.5795 15.3888C16.6883 15.2387 16.8317 15.1169 16.9974 15.0339C17.4846 14.7903 18.3624 14.7546 19.2339 14.7546H19.719C20.664 14.7672 20.9076 14.8281 21.2499 14.9142C21.9429 15.0801 21.9576 15.5274 21.8967 17.0583C21.8778 17.493 21.8589 17.9844 21.8589 18.564C21.8589 18.69 21.8526 18.8244 21.8526 18.9672C21.8316 19.7463 21.8064 20.6304 22.3566 20.9937C22.4284 21.0387 22.5113 21.0627 22.596 21.063C22.7871 21.063 23.3625 21.063 24.9207 18.3897C25.4013 17.5292 25.8189 16.6351 26.1702 15.7143C26.2017 15.6597 26.2941 15.4917 26.4033 15.4266C26.4839 15.3855 26.5733 15.3646 26.6637 15.3657H30.4038C30.8112 15.3657 31.0905 15.4266 31.143 15.5841C31.2354 15.834 31.1262 16.5963 29.4189 18.9084L28.6566 19.9143C27.1089 21.9429 27.1089 22.0458 28.7532 23.5851Z" fill="white"/>
</svg>
