<svg width="42" height="42" viewBox="0 0 42 42" fill="none" xmlns="http://www.w3.org/2000/svg">
<path fill-rule="evenodd" clip-rule="evenodd" d="M21 42C32.598 42 42 32.598 42 21C42 9.40202 32.598 0 21 0C9.40202 0 0 9.40202 0 21C0 32.598 9.40202 42 21 42ZM16.5804 9.10197L17.4171 9L17.7182 9.77993C17.7182 9.77993 18.0279 10.5718 18.2207 11.4754C19.4357 11.3094 20.4268 11.2715 21 11.2715C21.9298 11.2786 22.8582 11.3467 23.7793 11.4754C23.9711 10.5718 24.2807 9.77993 24.2807 9.77993L24.5829 9L25.4196 9.10197C25.4196 9.10197 29.175 9.51742 31.9146 11.7455H31.9489L31.9821 11.7802C32.5663 12.3232 32.8373 12.9846 33.2257 13.9327C33.2462 13.9828 33.267 14.0336 33.2882 14.0853C33.7871 15.3238 34.2118 16.5916 34.56 17.8819C35.355 20.7923 36 24.3177 36 27.5426V27.8138L35.8661 28.085C34.8739 29.8477 33.1125 30.9704 31.4796 31.746C29.8479 32.5216 28.4368 32.9327 27.4618 32.9664L26.8264 33L26.4911 32.424L25.3189 30.3218C24.0761 30.606 22.6446 30.7969 21 30.7969C19.3554 30.7969 17.9239 30.606 16.6811 30.3218L15.5089 32.424L15.1746 33L14.5382 32.9664C13.5632 32.9327 12.1521 32.5216 10.5204 31.746C8.8875 30.9704 7.12607 29.8477 6.13393 28.085L6 27.8138V27.5426C6 24.3177 6.645 20.7923 7.44 17.8819C7.78821 16.5916 8.21291 15.3238 8.71179 14.0853C8.73373 14.0319 8.75526 13.9794 8.77644 13.9277C9.16371 12.9832 9.43475 12.3222 10.0179 11.7791L10.0521 11.7466H10.0843C12.8261 9.51742 16.5804 9.10197 16.5804 9.10197ZM16.053 11.8089C16.0181 11.7066 15.981 11.5977 15.9439 11.4754C14.9443 11.6782 13.035 12.1447 11.4579 13.4073C11.4597 13.4082 11.4429 13.4367 11.412 13.4893C11.2957 13.6871 10.9786 14.2266 10.6875 14.9325C10.228 16.0829 9.83695 17.2601 9.51643 18.4579C8.79107 21.1058 8.22214 24.3307 8.17714 27.1695C8.85 28.2119 10.1014 29.1524 11.4236 29.7794C12.2536 30.1772 13.1319 30.4625 14.0357 30.6277L14.5714 29.7121C14.2532 29.5939 13.9393 29.4626 13.6671 29.339C12.0182 28.6057 11.1225 27.8138 11.1225 27.8138L12.5293 26.1867C12.5293 26.1867 13.1314 26.7464 14.5382 27.3734C15.9439 28.0004 18.0911 28.6274 21 28.6274C23.9089 28.6274 26.0571 28.0004 27.4618 27.3734C28.8686 26.7464 29.4707 26.1867 29.4707 26.1867L30.8775 27.8138C30.8775 27.8138 29.9818 28.6057 28.3329 29.339C28.0607 29.4626 27.7468 29.5928 27.4286 29.7121L27.9643 30.6266C28.8676 30.462 29.7455 30.1775 30.5754 29.7805C31.8986 29.1524 33.1489 28.2119 33.8239 27.1695C33.7779 24.3307 33.2089 21.1058 32.4846 18.4579C32.1075 17.077 31.6896 15.8523 31.3125 14.9325C31.0214 14.2266 30.7043 13.6871 30.588 13.4893C30.5571 13.4367 30.5403 13.4082 30.5421 13.4073C28.965 12.1447 27.0557 11.6782 26.0561 11.4743C26.0169 11.6043 25.9778 11.7186 25.9412 11.8252C25.9348 11.8441 25.9284 11.8627 25.9221 11.8811C27.3075 12.2293 28.785 12.7586 30.1404 13.6102L29.0025 15.4412C26.2232 13.6948 22.23 13.4409 21 13.4409C19.7689 13.4409 15.7768 13.6948 12.9975 15.4412L11.8596 13.6102C13.215 12.7586 14.6925 12.2293 16.0779 11.8822C16.0697 11.8581 16.0614 11.8337 16.053 11.8089ZM15.2411 19.9494C15.6889 19.3431 16.4218 18.8647 17.25 18.8647C18.0782 18.8647 18.8111 19.3431 19.2589 19.9494C19.7068 20.5558 19.9286 21.301 19.9286 22.1189C19.9286 22.9368 19.7068 23.682 19.2589 24.2884C18.8111 24.8948 18.0782 25.3732 17.25 25.3732C16.4218 25.3732 15.6889 24.8948 15.2411 24.2884C14.7932 23.682 14.5714 22.9368 14.5714 22.1189C14.5714 21.301 14.7932 20.5558 15.2411 19.9494ZM22.7411 19.9494C23.1889 19.3431 23.9218 18.8647 24.75 18.8647C25.5782 18.8647 26.3111 19.3431 26.7589 19.9494C27.2068 20.5558 27.4286 21.301 27.4286 22.1189C27.4286 22.9368 27.2068 23.682 26.7589 24.2884C26.3111 24.8948 25.5782 25.3732 24.75 25.3732C23.9218 25.3732 23.1889 24.8948 22.7411 24.2884C22.2932 23.682 22.0714 22.9368 22.0714 22.1189C22.0714 21.301 22.2932 20.5558 22.7411 19.9494ZM17.5179 21.2381C17.3839 21.0559 17.3089 21.0342 17.25 21.0342C17.1911 21.0342 17.1161 21.0559 16.9821 21.237C16.8482 21.4193 16.7143 21.7371 16.7143 22.1189C16.7114 22.4335 16.805 22.7413 16.9821 22.9997C17.1161 23.182 17.1911 23.2037 17.25 23.2037C17.3089 23.2037 17.3839 23.182 17.5179 23.0008C17.6518 22.8186 17.7857 22.5007 17.7857 22.1189C17.7857 21.7371 17.6518 21.4193 17.5179 21.2381ZM25.0179 21.2381C24.8839 21.0559 24.8089 21.0342 24.75 21.0342C24.6911 21.0342 24.6161 21.0559 24.4821 21.237C24.3482 21.4193 24.2143 21.7371 24.2143 22.1189C24.2114 22.4335 24.305 22.7413 24.4821 22.9997C24.6161 23.182 24.6911 23.2037 24.75 23.2037C24.8089 23.2037 24.8839 23.182 25.0179 23.0008C25.1518 22.8186 25.2857 22.5007 25.2857 22.1189C25.2857 21.7371 25.1518 21.4193 25.0179 21.2381Z" fill="white"/>
</svg>
