<svg width="28" height="20" viewBox="0 0 28 20" fill="none" xmlns="http://www.w3.org/2000/svg">
<path d="M2.91472 4.9315C3.8588 4.9315 4.62413 4.16617 4.62413 3.2221C4.62413 2.27802 3.8588 1.5127 2.91472 1.5127C1.97065 1.5127 1.20532 2.27802 1.20532 3.2221C1.20532 4.16617 1.97065 4.9315 2.91472 4.9315Z" fill="white"/>
<path d="M2.91472 11.7691C3.8588 11.7691 4.62413 11.0038 4.62413 10.0597C4.62413 9.11567 3.8588 8.35034 2.91472 8.35034C1.97065 8.35034 1.20532 9.11567 1.20532 10.0597C1.20532 11.0038 1.97065 11.7691 2.91472 11.7691Z" fill="white"/>
<path d="M2.91472 18.6068C3.8588 18.6068 4.62413 17.8415 4.62413 16.8974C4.62413 15.9533 3.8588 15.188 2.91472 15.188C1.97065 15.188 1.20532 15.9533 1.20532 16.8974C1.20532 17.8415 1.97065 18.6068 2.91472 18.6068Z" fill="white"/>
<path d="M26.1711 3.07699C26.1711 2.85031 26.0811 2.63291 25.9208 2.47263C25.7605 2.31234 25.5431 2.22229 25.3164 2.22229H7.00873V3.93169H25.3164C25.5431 3.93169 25.7605 3.84164 25.9208 3.68136C26.0811 3.52107 26.1711 3.30367 26.1711 3.07699Z" fill="white"/>
<path d="M25.3164 9.05981H7.00873V10.7692H25.3164C25.5431 10.7692 25.7605 10.6792 25.9208 10.5189C26.0811 10.3586 26.1711 10.1412 26.1711 9.91452C26.1711 9.68783 26.0811 9.47044 25.9208 9.31015C25.7605 9.14986 25.5431 9.05981 25.3164 9.05981Z" fill="white"/>
<path d="M25.3164 15.8975H7.00873V17.6069H25.3164C25.5431 17.6069 25.7605 17.5168 25.9208 17.3565C26.0811 17.1962 26.1711 16.9788 26.1711 16.7522C26.1711 16.5255 26.0811 16.3081 25.9208 16.1478C25.7605 15.9875 25.5431 15.8975 25.3164 15.8975Z" fill="white"/>
</svg>
