<svg width="301" height="27" viewBox="0 0 301 27" fill="none" xmlns="http://www.w3.org/2000/svg">
<path d="M8.208 5.552H0.144V0.799998H22.104V5.552H14.04V26H8.208V5.552ZM37.0943 26.432C34.4783 26.432 32.1143 25.868 30.0023 24.74C27.9143 23.612 26.2703 22.064 25.0703 20.096C23.8943 18.104 23.3063 15.872 23.3063 13.4C23.3063 10.928 23.8943 8.708 25.0703 6.74C26.2703 4.748 27.9143 3.188 30.0023 2.06C32.1143 0.931999 34.4783 0.368 37.0943 0.368C39.7103 0.368 42.0623 0.931999 44.1503 2.06C46.2383 3.188 47.8823 4.748 49.0823 6.74C50.2823 8.708 50.8823 10.928 50.8823 13.4C50.8823 15.872 50.2823 18.104 49.0823 20.096C47.8823 22.064 46.2383 23.612 44.1503 24.74C42.0623 25.868 39.7103 26.432 37.0943 26.432ZM37.0943 21.464C38.5823 21.464 39.9263 21.128 41.1263 20.456C42.3263 19.76 43.2623 18.8 43.9343 17.576C44.6303 16.352 44.9783 14.96 44.9783 13.4C44.9783 11.84 44.6303 10.448 43.9343 9.224C43.2623 8 42.3263 7.052 41.1263 6.38C39.9263 5.684 38.5823 5.336 37.0943 5.336C35.6063 5.336 34.2623 5.684 33.0623 6.38C31.8623 7.052 30.9143 8 30.2183 9.224C29.5463 10.448 29.2103 11.84 29.2103 13.4C29.2103 14.96 29.5463 16.352 30.2183 17.576C30.9143 18.8 31.8623 19.76 33.0623 20.456C34.2623 21.128 35.6063 21.464 37.0943 21.464ZM60.1338 5.552H52.0698V0.799998H74.0298V5.552H65.9658V26H60.1338V5.552ZM92.4981 20.6H80.7981L78.5661 26H72.5901L83.8221 0.799998H89.5821L100.85 26H94.7301L92.4981 20.6ZM90.6621 16.172L86.6661 6.524L82.6701 16.172H90.6621ZM103.465 0.799998H109.297V21.248H121.933V26H103.465V0.799998ZM144.703 21.32V26H125.191V0.799998H144.235V5.48H130.987V10.952H142.687V15.488H130.987V21.32H144.703ZM172.455 0.799998V26H167.667L155.103 10.7V26H149.343V0.799998H154.167L166.695 16.1V0.799998H172.455ZM197.793 16.1L194.409 19.628V26H188.613V0.799998H194.409V12.572L205.569 0.799998H212.049L201.609 12.032L212.661 26H205.857L197.793 16.1ZM231.317 26L226.457 18.98H226.169H221.093V26H215.261V0.799998H226.169C228.401 0.799998 230.333 1.172 231.965 1.916C233.621 2.66 234.893 3.716 235.781 5.084C236.669 6.452 237.113 8.072 237.113 9.944C237.113 11.816 236.657 13.436 235.745 14.804C234.857 16.148 233.585 17.18 231.929 17.9L237.581 26H231.317ZM231.209 9.944C231.209 8.528 230.753 7.448 229.841 6.704C228.929 5.936 227.597 5.552 225.845 5.552H221.093V14.336H225.845C227.597 14.336 228.929 13.952 229.841 13.184C230.753 12.416 231.209 11.336 231.209 9.944ZM241.734 0.799998H247.566V26H241.734V0.799998ZM273.059 21.32V26H253.547V0.799998H272.591V5.48H259.343V10.952H271.043V15.488H259.343V21.32H273.059ZM294.657 13.004H299.985V23.228C298.617 24.26 297.033 25.052 295.233 25.604C293.433 26.156 291.621 26.432 289.797 26.432C287.181 26.432 284.829 25.88 282.741 24.776C280.653 23.648 279.009 22.1 277.809 20.132C276.633 18.14 276.045 15.896 276.045 13.4C276.045 10.904 276.633 8.672 277.809 6.704C279.009 4.712 280.665 3.164 282.777 2.06C284.889 0.931999 287.265 0.368 289.905 0.368C292.113 0.368 294.117 0.739999 295.917 1.484C297.717 2.228 299.229 3.308 300.453 4.724L296.709 8.18C294.909 6.284 292.737 5.336 290.193 5.336C288.585 5.336 287.157 5.672 285.909 6.344C284.661 7.016 283.689 7.964 282.993 9.188C282.297 10.412 281.949 11.816 281.949 13.4C281.949 14.96 282.297 16.352 282.993 17.576C283.689 18.8 284.649 19.76 285.873 20.456C287.121 21.128 288.537 21.464 290.121 21.464C291.801 21.464 293.313 21.104 294.657 20.384V13.004Z" fill="white"/>
<path d="M8.208 5.552H0.144V0.799998H22.104V5.552H14.04V26H8.208V5.552ZM37.0943 26.432C34.4783 26.432 32.1143 25.868 30.0023 24.74C27.9143 23.612 26.2703 22.064 25.0703 20.096C23.8943 18.104 23.3063 15.872 23.3063 13.4C23.3063 10.928 23.8943 8.708 25.0703 6.74C26.2703 4.748 27.9143 3.188 30.0023 2.06C32.1143 0.931999 34.4783 0.368 37.0943 0.368C39.7103 0.368 42.0623 0.931999 44.1503 2.06C46.2383 3.188 47.8823 4.748 49.0823 6.74C50.2823 8.708 50.8823 10.928 50.8823 13.4C50.8823 15.872 50.2823 18.104 49.0823 20.096C47.8823 22.064 46.2383 23.612 44.1503 24.74C42.0623 25.868 39.7103 26.432 37.0943 26.432ZM37.0943 21.464C38.5823 21.464 39.9263 21.128 41.1263 20.456C42.3263 19.76 43.2623 18.8 43.9343 17.576C44.6303 16.352 44.9783 14.96 44.9783 13.4C44.9783 11.84 44.6303 10.448 43.9343 9.224C43.2623 8 42.3263 7.052 41.1263 6.38C39.9263 5.684 38.5823 5.336 37.0943 5.336C35.6063 5.336 34.2623 5.684 33.0623 6.38C31.8623 7.052 30.9143 8 30.2183 9.224C29.5463 10.448 29.2103 11.84 29.2103 13.4C29.2103 14.96 29.5463 16.352 30.2183 17.576C30.9143 18.8 31.8623 19.76 33.0623 20.456C34.2623 21.128 35.6063 21.464 37.0943 21.464ZM60.1338 5.552H52.0698V0.799998H74.0298V5.552H65.9658V26H60.1338V5.552ZM92.4981 20.6H80.7981L78.5661 26H72.5901L83.8221 0.799998H89.5821L100.85 26H94.7301L92.4981 20.6ZM90.6621 16.172L86.6661 6.524L82.6701 16.172H90.6621ZM103.465 0.799998H109.297V21.248H121.933V26H103.465V0.799998ZM144.703 21.32V26H125.191V0.799998H144.235V5.48H130.987V10.952H142.687V15.488H130.987V21.32H144.703ZM172.455 0.799998V26H167.667L155.103 10.7V26H149.343V0.799998H154.167L166.695 16.1V0.799998H172.455ZM197.793 16.1L194.409 19.628V26H188.613V0.799998H194.409V12.572L205.569 0.799998H212.049L201.609 12.032L212.661 26H205.857L197.793 16.1ZM231.317 26L226.457 18.98H226.169H221.093V26H215.261V0.799998H226.169C228.401 0.799998 230.333 1.172 231.965 1.916C233.621 2.66 234.893 3.716 235.781 5.084C236.669 6.452 237.113 8.072 237.113 9.944C237.113 11.816 236.657 13.436 235.745 14.804C234.857 16.148 233.585 17.18 231.929 17.9L237.581 26H231.317ZM231.209 9.944C231.209 8.528 230.753 7.448 229.841 6.704C228.929 5.936 227.597 5.552 225.845 5.552H221.093V14.336H225.845C227.597 14.336 228.929 13.952 229.841 13.184C230.753 12.416 231.209 11.336 231.209 9.944ZM241.734 0.799998H247.566V26H241.734V0.799998ZM273.059 21.32V26H253.547V0.799998H272.591V5.48H259.343V10.952H271.043V15.488H259.343V21.32H273.059ZM294.657 13.004H299.985V23.228C298.617 24.26 297.033 25.052 295.233 25.604C293.433 26.156 291.621 26.432 289.797 26.432C287.181 26.432 284.829 25.88 282.741 24.776C280.653 23.648 279.009 22.1 277.809 20.132C276.633 18.14 276.045 15.896 276.045 13.4C276.045 10.904 276.633 8.672 277.809 6.704C279.009 4.712 280.665 3.164 282.777 2.06C284.889 0.931999 287.265 0.368 289.905 0.368C292.113 0.368 294.117 0.739999 295.917 1.484C297.717 2.228 299.229 3.308 300.453 4.724L296.709 8.18C294.909 6.284 292.737 5.336 290.193 5.336C288.585 5.336 287.157 5.672 285.909 6.344C284.661 7.016 283.689 7.964 282.993 9.188C282.297 10.412 281.949 11.816 281.949 13.4C281.949 14.96 282.297 16.352 282.993 17.576C283.689 18.8 284.649 19.76 285.873 20.456C287.121 21.128 288.537 21.464 290.121 21.464C291.801 21.464 293.313 21.104 294.657 20.384V13.004Z" fill="url(#paint0_linear_215_6)"/>
<defs>
<linearGradient id="paint0_linear_215_6" x1="12.5" y1="35" x2="160.5" y2="35" gradientUnits="userSpaceOnUse">
<stop stop-color="#FE1392"/>
<stop offset="1" stop-color="white" stop-opacity="0.51"/>
</linearGradient>
</defs>
</svg>
